<?xml version="1.0" encoding="utf-8"?>
<!-- Generator: Adobe Illustrator 22.0.1, SVG Export Plug-In . SVG Version: 6.00 Build 0)  -->
<svg version="1.1" id="Layer_1" xmlns="http://www.w3.org/2000/svg" xmlns:xlink="http://www.w3.org/1999/xlink" x="0px" y="0px"
	 viewBox="0 0 18 12" style="enable-background:new 0 0 18 12;" xml:space="preserve">
<style type="text/css">
	.st0{fill:#002D43;}
</style>
<g>
	<path class="st0" d="M14.902,2.033l-0.84,0.84c1.087,0.809,2.013,1.862,2.66,3.127C15.207,8.96,12.229,10.846,9,10.846
		c-0.866,0-1.709-0.144-2.514-0.397l-0.914,0.914C6.641,11.773,7.795,12,9,12c3.991,0,7.429-2.456,9-6
		C17.3,4.42,16.227,3.059,14.902,2.033z"/>
	<path class="st0" d="M9,9.426c1.821,0,3.297-1.534,3.297-3.426c0-0.408-0.08-0.794-0.206-1.157L7.762,9.172
		C8.145,9.333,8.562,9.426,9,9.426z"/>
	<path class="st0" d="M11.503,3.793l1.562-1.562l0.862-0.862l0.214-0.214c0.226-0.226,0.226-0.591,0-0.816
		c-0.017-0.017-0.039-0.024-0.058-0.038c-0.227-0.176-0.549-0.169-0.759,0.038l-0.476,0.476C11.665,0.294,10.366,0,9,0
		C5.01,0,1.571,2.456,0,6c0.753,1.715,1.954,3.172,3.441,4.222l-0.367,0.367c-0.208,0.209-0.215,0.532-0.038,0.759
		c0.014,0.018,0.021,0.041,0.038,0.058c0.113,0.112,0.261,0.169,0.408,0.169s0.295-0.057,0.408-0.169l0.56-0.56L5.316,9.98
		l1.462-1.462L11.503,3.793z M1.277,6.002C2.792,3.041,5.771,1.154,9,1.154c1.023,0,2.014,0.208,2.948,0.561l-1.321,1.321
		C10.145,2.75,9.595,2.573,9,2.573C7.179,2.573,5.703,4.108,5.703,6c0,0.571,0.147,1.101,0.385,1.575L4.28,9.383
		C3.037,8.55,1.988,7.402,1.277,6.002z"/>
</g>
</svg>
