<?xml version="1.0" encoding="utf-8"?>
<!-- Generator: Adobe Illustrator 22.0.1, SVG Export Plug-In . SVG Version: 6.00 Build 0)  -->
<svg version="1.1" id="Layer_1" xmlns="http://www.w3.org/2000/svg" xmlns:xlink="http://www.w3.org/1999/xlink" x="0px" y="0px"
	 viewBox="0 0 141.338 24" style="enable-background:new 0 0 141.338 24;" xml:space="preserve">
<style type="text/css">
	.st0{fill:#FF3683;}
	.st1{fill:#8728EA;}
	.st2{fill:#51D6B6;}
	.st3{fill:#6CA1FF;}
	.st4{fill:#002D43;}
</style>
<g>
	<g>
		<rect x="12" class="st0" width="12" height="12"/>
		<rect x="24" class="st1" width="12" height="12"/>
		<rect x="12" y="12" class="st2" width="12" height="12"/>
		<rect y="12" class="st3" width="12" height="12"/>
	</g>
	<g>
		<path class="st4" d="M47.796,15.374c0.196,0.377,0.457,0.683,0.781,0.916c0.324,0.234,0.705,0.407,1.142,0.52
			c0.437,0.113,0.891,0.17,1.358,0.17c0.317,0,0.656-0.026,1.017-0.08c0.363-0.052,0.702-0.154,1.019-0.305
			c0.316-0.151,0.58-0.358,0.791-0.622c0.211-0.264,0.318-0.599,0.318-1.007c0-0.437-0.14-0.791-0.419-1.063
			c-0.279-0.271-0.645-0.497-1.097-0.678c-0.452-0.182-0.966-0.34-1.539-0.476c-0.573-0.136-1.154-0.286-1.742-0.452
			c-0.603-0.151-1.192-0.336-1.765-0.555s-1.085-0.501-1.539-0.849c-0.452-0.347-0.818-0.781-1.097-1.301
			c-0.279-0.521-0.417-1.15-0.417-1.889c0-0.83,0.176-1.55,0.531-2.16c0.354-0.611,0.818-1.121,1.393-1.527
			c0.573-0.407,1.221-0.709,1.946-0.905c0.723-0.196,1.447-0.294,2.172-0.294c0.844,0,1.655,0.094,2.433,0.283
			c0.776,0.188,1.466,0.494,2.069,0.916c0.603,0.423,1.082,0.962,1.436,1.618c0.354,0.656,0.532,1.451,0.532,2.387h-3.439
			c-0.03-0.482-0.131-0.882-0.304-1.199c-0.175-0.316-0.404-0.566-0.69-0.747c-0.286-0.181-0.615-0.309-0.984-0.384
			c-0.371-0.075-0.773-0.113-1.21-0.113c-0.288,0-0.574,0.03-0.861,0.09c-0.286,0.06-0.547,0.166-0.781,0.316
			c-0.234,0.151-0.427,0.339-0.577,0.566c-0.151,0.226-0.226,0.512-0.226,0.859c0,0.317,0.06,0.573,0.181,0.769
			c0.121,0.197,0.359,0.378,0.713,0.543c0.354,0.166,0.846,0.332,1.471,0.497c0.625,0.167,1.444,0.378,2.455,0.634
			c0.301,0.06,0.72,0.17,1.255,0.328c0.535,0.159,1.067,0.411,1.595,0.758c0.529,0.347,0.984,0.811,1.37,1.392
			c0.384,0.58,0.576,1.323,0.576,2.228c0,0.739-0.143,1.425-0.43,2.059c-0.286,0.634-0.713,1.181-1.278,1.641
			c-0.565,0.46-1.268,0.818-2.104,1.075c-0.838,0.256-1.807,0.384-2.907,0.384c-0.891,0-1.754-0.109-2.591-0.328
			s-1.576-0.561-2.217-1.029c-0.642-0.467-1.15-1.063-1.527-1.787c-0.378-0.724-0.559-1.584-0.544-2.579h3.439
			C47.502,14.536,47.6,14.997,47.796,15.374z"/>
		<path class="st4" d="M59.788,5.849V3.201H63v2.647H59.788z M63,7.659v11.697h-3.212V7.659H63z"/>
		<path class="st4" d="M76.656,20.215c-0.128,0.603-0.404,1.165-0.826,1.686c-0.422,0.52-1.034,0.962-1.833,1.323
			c-0.8,0.362-1.87,0.543-3.213,0.543c-0.573,0-1.157-0.072-1.753-0.216c-0.597-0.143-1.139-0.365-1.629-0.667
			c-0.49-0.302-0.897-0.69-1.222-1.166c-0.324-0.475-0.508-1.044-0.553-1.708h3.189c0.151,0.603,0.445,1.021,0.883,1.255
			c0.437,0.234,0.942,0.35,1.516,0.35c0.904,0,1.564-0.271,1.979-0.814c0.414-0.543,0.615-1.23,0.6-2.06v-1.538h-0.045
			c-0.347,0.619-0.841,1.075-1.482,1.368c-0.642,0.294-1.317,0.442-2.026,0.442c-0.874,0-1.629-0.154-2.262-0.464
			c-0.633-0.309-1.154-0.731-1.561-1.267c-0.407-0.535-0.705-1.161-0.894-1.878s-0.283-1.474-0.283-2.274
			c0-0.754,0.11-1.482,0.329-2.183s0.54-1.319,0.962-1.855c0.422-0.535,0.946-0.962,1.572-1.278C68.73,7.5,69.45,7.341,70.264,7.341
			c0.769,0,1.444,0.144,2.026,0.43c0.58,0.286,1.067,0.769,1.459,1.448h0.045V7.659h3.055v10.95
			C76.849,19.077,76.784,19.612,76.656,20.215z M72.255,16.324c0.347-0.181,0.633-0.422,0.861-0.724
			c0.226-0.301,0.395-0.645,0.508-1.029s0.17-0.788,0.17-1.21c0-0.483-0.045-0.939-0.136-1.369c-0.09-0.43-0.241-0.81-0.452-1.142
			c-0.213-0.332-0.491-0.595-0.838-0.792c-0.347-0.196-0.784-0.294-1.313-0.294c-0.452,0-0.841,0.09-1.165,0.271
			c-0.324,0.181-0.595,0.427-0.814,0.735s-0.377,0.664-0.475,1.063c-0.098,0.4-0.148,0.818-0.148,1.255
			c0,0.423,0.042,0.841,0.125,1.256c0.083,0.414,0.226,0.788,0.43,1.12c0.203,0.332,0.472,0.604,0.803,0.815
			c0.332,0.211,0.746,0.316,1.243,0.316C71.509,16.595,71.908,16.505,72.255,16.324z"/>
		<path class="st4" d="M82.58,7.659v1.628h0.068c0.407-0.678,0.936-1.173,1.584-1.482c0.648-0.309,1.313-0.464,1.991-0.464
			c0.861,0,1.564,0.118,2.116,0.351c0.55,0.234,0.984,0.558,1.301,0.973c0.316,0.415,0.54,0.92,0.668,1.515
			c0.128,0.596,0.191,1.256,0.191,1.98v7.195h-3.212v-6.607c0-0.965-0.151-1.686-0.454-2.16c-0.301-0.476-0.836-0.713-1.605-0.713
			c-0.876,0-1.509,0.26-1.9,0.781c-0.393,0.52-0.589,1.377-0.589,2.568v6.131h-3.212V7.659H82.58z"/>
		<path class="st4" d="M100.961,19.356v-1.629h-0.068c-0.407,0.679-0.936,1.17-1.584,1.471c-0.648,0.301-1.313,0.452-1.991,0.452
			c-0.861,0-1.566-0.113-2.116-0.339c-0.55-0.226-0.984-0.546-1.301-0.962c-0.316-0.414-0.54-0.92-0.668-1.516
			c-0.128-0.595-0.191-1.255-0.191-1.98V7.659h3.212v6.607c0,0.965,0.151,1.685,0.454,2.16c0.301,0.475,0.836,0.713,1.605,0.713
			c0.876,0,1.509-0.261,1.9-0.781c0.393-0.521,0.589-1.376,0.589-2.568V7.659h3.212v11.697H100.961z"/>
		<path class="st4" d="M109.692,7.659v1.493h0.045c0.392-0.633,0.891-1.093,1.494-1.38c0.603-0.286,1.268-0.43,1.991-0.43
			c0.919,0,1.712,0.174,2.375,0.521c0.665,0.347,1.215,0.807,1.652,1.38c0.437,0.573,0.761,1.241,0.974,2.003
			c0.211,0.761,0.316,1.557,0.316,2.387c0,0.784-0.105,1.539-0.316,2.262c-0.213,0.724-0.532,1.365-0.962,1.923
			c-0.431,0.558-0.966,1.004-1.607,1.335c-0.642,0.332-1.391,0.497-2.252,0.497c-0.723,0-1.391-0.147-2.001-0.441
			c-0.612-0.294-1.114-0.728-1.506-1.301h-0.045v5.543h-3.212V7.659H109.692z M113.867,16.934c0.354-0.211,0.641-0.486,0.859-0.825
			c0.219-0.34,0.374-0.735,0.464-1.188c0.09-0.452,0.136-0.912,0.136-1.38c0-0.467-0.048-0.928-0.146-1.381
			c-0.099-0.452-0.261-0.855-0.487-1.21c-0.226-0.354-0.517-0.641-0.871-0.86c-0.354-0.219-0.788-0.328-1.301-0.328
			c-0.529,0-0.969,0.109-1.323,0.328c-0.356,0.219-0.642,0.502-0.861,0.849c-0.219,0.347-0.374,0.747-0.464,1.199
			c-0.09,0.453-0.136,0.921-0.136,1.403c0,0.468,0.05,0.928,0.148,1.38c0.098,0.453,0.256,0.849,0.475,1.188
			c0.219,0.339,0.509,0.614,0.871,0.825c0.362,0.212,0.799,0.317,1.313,0.317C113.071,17.252,113.513,17.146,113.867,16.934z"/>
		<path class="st4" d="M123.694,7.659V9.83h0.045c0.151-0.362,0.354-0.698,0.612-1.007c0.256-0.309,0.55-0.573,0.882-0.792
			c0.332-0.219,0.686-0.388,1.064-0.509c0.377-0.121,0.769-0.182,1.176-0.182c0.211,0,0.445,0.038,0.702,0.114v2.986
			c-0.152-0.03-0.333-0.057-0.544-0.079s-0.414-0.034-0.61-0.034c-0.588,0-1.087,0.098-1.494,0.294
			c-0.407,0.196-0.735,0.463-0.984,0.803c-0.249,0.339-0.427,0.735-0.532,1.188c-0.105,0.452-0.158,0.943-0.158,1.47v5.272h-3.212
			V7.659H123.694z"/>
		<path class="st4" d="M129.663,10.973c0.286-0.761,0.693-1.41,1.221-1.946c0.529-0.535,1.162-0.95,1.9-1.244
			c0.74-0.294,1.569-0.442,2.49-0.442c0.919,0,1.753,0.148,2.499,0.442c0.748,0.294,1.384,0.709,1.913,1.244
			c0.527,0.536,0.934,1.185,1.222,1.946c0.286,0.762,0.43,1.61,0.43,2.546c0,0.935-0.143,1.78-0.43,2.534
			c-0.288,0.754-0.695,1.399-1.222,1.934c-0.529,0.535-1.165,0.946-1.913,1.233c-0.746,0.286-1.579,0.43-2.499,0.43
			c-0.921,0-1.75-0.143-2.49-0.43c-0.738-0.286-1.371-0.698-1.9-1.233c-0.527-0.536-0.934-1.18-1.221-1.934
			c-0.288-0.754-0.431-1.599-0.431-2.534C129.232,12.583,129.375,11.735,129.663,10.973z M132.581,14.887
			c0.09,0.445,0.246,0.846,0.464,1.2c0.219,0.354,0.509,0.637,0.871,0.848c0.362,0.212,0.814,0.317,1.358,0.317
			c0.543,0,0.998-0.105,1.368-0.317c0.369-0.211,0.663-0.494,0.882-0.848c0.219-0.354,0.374-0.754,0.464-1.2
			c0.09-0.445,0.136-0.901,0.136-1.368c0-0.467-0.045-0.928-0.136-1.381c-0.09-0.452-0.246-0.852-0.464-1.199
			c-0.219-0.347-0.512-0.629-0.882-0.849c-0.371-0.219-0.826-0.328-1.368-0.328c-0.544,0-0.996,0.109-1.358,0.328
			c-0.362,0.219-0.653,0.502-0.871,0.849c-0.219,0.347-0.374,0.747-0.464,1.199c-0.09,0.453-0.136,0.913-0.136,1.381
			C132.445,13.986,132.491,14.442,132.581,14.887z"/>
	</g>
</g>
</svg>
