<?xml version="1.0" encoding="utf-8"?>
<!-- Generator: Adobe Illustrator 22.0.1, SVG Export Plug-In . SVG Version: 6.00 Build 0)  -->
<svg version="1.1" id="Layer_1" xmlns="http://www.w3.org/2000/svg" xmlns:xlink="http://www.w3.org/1999/xlink" x="0px" y="0px"
	 viewBox="0 0 126 129.386" style="enable-background:new 0 0 126 129.386;" xml:space="preserve">
<style type="text/css">
	.st0{fill:#FF3683;}
	.st1{opacity:0.2;fill:#1D1D1B;}
	.st2{fill:#F8F8F8;}
	.st3{opacity:0.1;fill:#1D1D1B;}
	.st4{fill:#DADADA;}
	.st5{fill:#8728EA;}
	.st6{fill:#51D6B6;}
	.st7{fill:#6CA1FF;}
</style>
<g>
	<g>
		<g>
			<path class="st0" d="M0,53.21L52.147,4.293c6.103-5.725,15.603-5.725,21.705,0L126,53.21"/>
			<polygon class="st0" points="126,53.21 0,53.21 0,53.21 126,53.21 			"/>
			<polygon class="st0" points="49.89,82.862 76.672,82.655 84.63,90.194 126,53.21 0,53.21 41.705,90.494 			"/>
			<polygon class="st1" points="49.89,82.862 76.672,82.655 84.63,90.194 126,53.21 0,53.21 41.705,90.494 			"/>
			<rect x="5.145" y="15.403" class="st2" width="115.711" height="109.25"/>
			<polygon class="st0" points="0,53.21 0,53.21 0,129.386 41.705,90.494 			"/>
			<polygon class="st0" points="84.63,90.194 126,129.386 126,53.21 126,53.21 			"/>
			<polygon class="st0" points="84.63,90.194 76.672,82.655 49.89,82.862 41.705,90.494 0,129.386 126,129.386 			"/>
			<polygon class="st3" points="0,53.21 0,53.21 0,129.386 41.705,90.494 			"/>
			<polygon class="st3" points="84.63,90.194 126,129.386 126,53.21 126,53.21 			"/>
		</g>
		<rect x="32.005" y="53.008" class="st4" width="61.989" height="3.186"/>
		<rect x="32.005" y="62.568" class="st4" width="61.989" height="3.186"/>
	</g>
	<g>
		<rect x="59.249" y="26.941" class="st0" width="7.503" height="7.503"/>
		<rect x="66.751" y="26.941" class="st5" width="7.503" height="7.503"/>
		<rect x="59.249" y="34.443" class="st6" width="7.503" height="7.503"/>
		<rect x="51.746" y="34.443" class="st7" width="7.503" height="7.503"/>
	</g>
</g>
</svg>
